<svg width="435" height="131" viewBox="0 0 435 131" fill="none" xmlns="http://www.w3.org/2000/svg">
<g clip-path="url(#clip0_86_6109)">
<path d="M3.55 127C1.23 124.42 0.0666642 120.72 0.0599976 115.9V112.5H8.91V116.58C8.91 120.44 10.52 122.36 13.75 122.36C14.4176 122.406 15.0871 122.304 15.711 122.062C16.3349 121.82 16.8979 121.444 17.36 120.96C18.19 120.02 18.6 118.51 18.6 116.41C18.6455 114.099 18.0576 111.82 16.9 109.82C15.1517 107.248 13.032 104.95 10.61 103C6.75 99.6 4.05667 96.5267 2.53 93.78C0.973118 90.927 0.180788 87.7198 0.230003 84.47C0.230003 79.7567 1.42333 76.1133 3.81 73.54C6.19666 70.9667 9.65333 69.68 14.18 69.68C18.6467 69.68 22.0333 70.9667 24.34 73.54C26.6467 76.1133 27.7933 79.8133 27.78 84.64V87.1H18.94V84C19.0721 82.4203 18.6515 80.8438 17.75 79.54C17.3114 79.0587 16.7697 78.6828 16.1653 78.4403C15.561 78.1979 14.9096 78.0952 14.26 78.14C11.14 78.14 9.59 80.04 9.59 83.83C9.59138 85.9542 10.1947 88.0346 11.33 89.83C13.1104 92.3826 15.2413 94.6717 17.66 96.63C21.5667 100.03 24.26 103.117 25.74 105.89C27.2697 108.919 28.0288 112.278 27.95 115.67C27.95 120.55 26.7467 124.29 24.34 126.89C21.9333 129.49 18.4333 130.793 13.84 130.8C9.28 130.847 5.85 129.58 3.55 127Z" fill="black"/>
<path d="M36.28 127C33.84 124.4 32.62 120.717 32.62 115.95V84.63C32.62 79.87 33.84 76.2033 36.28 73.63C38.72 71.0567 42.2333 69.7533 46.82 69.72C51.4067 69.72 54.92 71.0233 57.36 73.63C59.8 76.2367 61.02 79.9033 61.02 84.63V115.91C61.02 120.67 59.8 124.353 57.36 126.96C54.92 129.567 51.4067 130.87 46.82 130.87C42.2333 130.87 38.72 129.58 36.28 127ZM51.67 116.55V84C51.67 80.0933 50.0533 78.14 46.82 78.14C43.5867 78.14 41.98 80.0933 42 84V116.48C42 120.393 43.6133 122.347 46.84 122.34C50.0667 122.333 51.6767 120.39 51.67 116.51V116.55Z" fill="black"/>
<path d="M70.54 127C68.16 124.42 66.97 120.72 66.97 115.9V70.5H76.32V116.58C76.1782 118.154 76.6155 119.726 77.55 121C78.5172 121.876 79.7753 122.36 81.08 122.36C82.3847 122.36 83.6428 121.876 84.61 121C85.5445 119.726 85.9818 118.154 85.84 116.58V70.51H94.84V115.91C94.84 120.73 93.65 124.43 91.27 127.01C88.89 129.59 85.4333 130.877 80.9 130.87C76.38 130.87 72.9267 129.58 70.54 127Z" fill="black"/>
<path d="M101.48 70.51H113.21L122.31 106.13H122.48V70.51H130.81V130H121.21L110 86.58H109.83V130H101.5L101.48 70.51Z" fill="black"/>
<path d="M137.78 70.51H152.06C156.727 70.51 160.213 71.7567 162.52 74.25C164.827 76.7433 165.99 80.41 166.01 85.25V115.35C166.01 120.163 164.847 123.83 162.52 126.35C160.193 128.87 156.707 130.087 152.06 130H137.78V70.51ZM151.89 121.51C152.542 121.552 153.195 121.453 153.804 121.218C154.414 120.983 154.965 120.619 155.42 120.15C156.354 118.876 156.792 117.304 156.65 115.73V84.8C156.792 83.2261 156.354 81.6545 155.42 80.38C154.965 79.9112 154.414 79.5468 153.804 79.312C153.195 79.0772 152.542 78.9776 151.89 79.02H147.13V121.52L151.89 121.51Z" fill="black"/>
<path d="M173.18 70.51H198.69V79H182.53V94.72H195.37V103.22H182.53V121.5H198.69V130H173.18V70.51Z" fill="black"/>
<path d="M212.46 99.59L202.17 70.51H212L218.29 89.73H218.46L225 70.51H233.84L223.56 99.59L234.3 130H224.44L217.64 109.26H217.47L210.47 130H201.63L212.46 99.59Z" fill="black"/>
<path d="M240.38 127.05C238.027 124.497 236.85 120.897 236.85 116.25V84.25C236.85 79.5833 238.027 75.9833 240.38 73.45C242.733 70.9167 246.15 69.6433 250.63 69.63C255.103 69.63 258.517 70.9033 260.87 73.45C263.223 75.9967 264.4 79.5967 264.4 84.25V90.54H255.56V83.65C255.56 79.97 254 78.13 250.88 78.13C247.76 78.13 246.21 79.97 246.21 83.65V116.89C246.21 120.52 247.76 122.33 250.88 122.33C254 122.33 255.56 120.52 255.56 116.89V107.79H264.4V116.21C264.4 120.877 263.223 124.477 260.87 127.01C258.517 129.543 255.103 130.817 250.63 130.83C246.15 130.857 242.733 129.597 240.38 127.05Z" fill="black"/>
<path d="M270 70.51H279.35V94.74H289.35V70.51H298.7V130H289.35V103.24H279.35V130H270V70.51Z" fill="black"/>
<path d="M312.94 70.51H325.61L335.3 130H326L324.3 118.19V118.36H313.62L311.92 130H303.25L312.94 70.51ZM323.14 110.3L319 80.89H318.83L314.75 110.3H323.14Z" fill="black"/>
<path d="M339.8 70.51H351.53L360.63 106.13H360.8V70.51H369.13V130H359.52L348.3 86.58H348.13V130H339.8V70.51Z" fill="black"/>
<path d="M379 127C376.62 124.42 375.43 120.72 375.43 115.9V84.63C375.43 79.81 376.62 76.11 379 73.53C381.38 70.95 384.837 69.6633 389.37 69.67C393.91 69.67 397.37 70.95 399.75 73.53C402.13 76.11 403.32 79.81 403.32 84.63V89.73H394.47V84C394.47 80.0933 392.857 78.14 389.63 78.14C386.403 78.14 384.783 80.0933 384.77 84V116.56C384.77 120.42 386.39 122.34 389.62 122.34C392.85 122.34 394.46 120.42 394.46 116.56V104.94H389.79V96.44H403.31V115.91C403.31 120.73 402.12 124.43 399.74 127.01C397.35 129.58 393.9 130.87 389.36 130.87C384.82 130.87 381.37 129.58 379 127Z" fill="black"/>
<path d="M409.34 70.51H434.84V79H418.69V94.72H431.53V103.22H418.69V121.5H434.84V130H409.34V70.51Z" fill="black"/>
<path d="M42.67 8.32L0.190002 38.13C0.190002 38.13 25.53 56 59.82 56C89.63 56 123.16 41.09 130.61 38.11C143.28 33.64 185.02 9.79 199.92 26.19L241.66 0.849996C241.66 0.849996 213.34 -3.84 176.08 10.85C138.56 25.71 117 38.13 76.14 25C64.2213 21.1266 52.9422 15.509 42.67 8.33" fill="black"/>
</g>
<defs>
<clipPath id="clip0_86_6109">
<rect width="435" height="131" fill="white"/>
</clipPath>
</defs>
</svg>
